Coordinates
version=1
nRows=30
nColumns=38
inDegrees=no

Units are S.I. units (second, meters, Newtons, ...)
If the header above contains a line with 'inDegrees', this indicates whether rotational values are in degrees (yes) or radians (no).

endheader
time	pelvis_tilt	pelvis_list	pelvis_rotation	pelvis_tx	pelvis_ty	pelvis_tz	hip_flexion_r	hip_adduction_r	hip_rotation_r	knee_angle_r	ankle_angle_r	subtalar_angle_r	mtp_angle_r	hip_flexion_l	hip_adduction_l	hip_rotation_l	knee_angle_l	ankle_angle_l	subtalar_angle_l	mtp_angle_l	lumbar_extension	lumbar_bending	lumbar_rotation	arm_flex_r	arm_add_r	arm_rot_r	elbow_flex_r	pro_sup_r	wrist_flex_r	wrist_dev_r	arm_flex_l	arm_add_l	arm_rot_l	elbow_flex_l	pro_sup_l	wrist_flex_l	wrist_dev_l
0	-0.648211	1.38579	-0.791485	0.71175	2.02426	0.950621	0.0265086	0.106117	-0.244453	0.391569	-0.225284	0	0	-0.0533126	-0.317664	-0.198848	1.26855	-0.36258	0	0	-0.212122	0.17557	0.0299091	-0.157789	-0.347063	0.133756	0.814768	1.53409	0	0	0.0961152	-0.257175	0.613808	0.6812	1.4869	0	0
0.01	-0.616903	1.38827	-0.826585	0.710398	2.01572	0.952277	0.0055703	0.105959	-0.233006	0.371726	-0.225476	0	0	-0.0287546	-0.298524	-0.172859	1.29425	-0.334586	0	0	-0.214818	0.167101	0.0316334	-0.146735	-0.346172	0.135115	0.809641	1.53674	0	0	0.0885155	-0.263295	0.606823	0.685342	1.48008	0	0
0.02	-0.588071	1.39017	-0.860098	0.709038	2.00699	0.953665	-0.0125567	0.104426	-0.228275	0.360041	-0.224743	0	0	-0.0053421	-0.286994	-0.162239	1.31524	-0.31473	0	0	-0.217018	0.159026	0.0352011	-0.137907	-0.344841	0.133178	0.806398	1.54134	0	0	0.0801207	-0.26946	0.599296	0.691303	1.47489	0	0
0.03	-0.566931	1.39431	-0.88467	0.707785	1.99831	0.954791	-0.0270949	0.102025	-0.22583	0.349342	-0.223696	0	0	0.0211212	-0.273222	-0.147456	1.33095	-0.29685	0	0	-0.2161	0.150848	0.036485	-0.12874	-0.342218	0.129569	0.802531	1.54781	0	0	0.0708912	-0.275432	0.590301	0.697155	1.46976	0	0
0.04	-0.526505	1.39706	-0.929321	0.706714	1.98951	0.956138	-0.0448771	0.0968565	-0.224892	0.338872	-0.222795	0	0	0.0419884	-0.258115	-0.138259	1.33911	-0.281858	0	0	-0.218186	0.140944	0.0379385	-0.119528	-0.339383	0.125009	0.799408	1.55493	0	0	0.0612752	-0.281191	0.580511	0.7037	1.46498	0	0
0.05	-0.479943	1.40233	-0.97957	0.705859	1.98131	0.957384	-0.0583015	0.0881884	-0.224039	0.331865	-0.221702	0	0	0.0670764	-0.239877	-0.13548	1.34278	-0.286707	0	0	-0.219607	0.128914	0.037857	-0.107753	-0.335463	0.119722	0.794719	1.5614	0	0	0.053028	-0.286067	0.570115	0.709032	1.46038	0	0
0.06	-0.441367	1.40484	-1.0232	0.704792	1.97274	0.958353	-0.0735854	0.0828534	-0.223274	0.324029	-0.22037	0	0	0.0876965	-0.22875	-0.13496	1.34228	-0.280797	0	0	-0.221334	0.11933	0.0394897	-0.0978655	-0.331937	0.114605	0.792459	1.56824	0	0	0.0433036	-0.291495	0.55951	0.716427	1.45593	0	0
0.07	-0.422658	1.40182	-1.04828	0.703413	1.96364	0.958917	-0.0944214	0.0848154	-0.220758	0.31136	-0.219412	0	0	0.101727	-0.22938	-0.137988	1.33961	-0.248637	0	0	-0.225351	0.115018	0.0438523	-0.0923064	-0.329368	0.10702	0.796841	1.5708	0	0	0.0312888	-0.298983	0.549513	0.7299	1.45195	0	0
0.08	-0.400544	1.40052	-1.07493	0.70224	1.95521	0.959429	-0.112028	0.0847108	-0.218031	0.30179	-0.21776	0	0	0.119719	-0.226387	-0.142807	1.33328	-0.236496	0	0	-0.229188	0.10956	0.0475411	-0.0855508	-0.327154	0.100904	0.800869	1.5708	0	0	0.0239519	-0.305311	0.543947	0.739362	1.44941	0	0
0.09	-0.37443	1.39778	-1.10471	0.701353	1.94677	0.959915	-0.131772	0.0842272	-0.216276	0.291607	-0.215816	0	0	0.134931	-0.222988	-0.148358	1.32232	-0.225374	0	0	-0.234643	0.104536	0.0508026	-0.0794432	-0.325212	0.094581	0.806275	1.5708	0	0	0.0174294	-0.311432	0.53995	0.748931	1.44727	0	0
0.1	-0.344931	1.39435	-1.13707	0.700762	1.9382	0.960349	-0.153048	0.0830007	-0.215493	0.280554	-0.21393	0	0	0.147643	-0.218613	-0.1547	1.30609	-0.215374	0	0	-0.240709	0.099517	0.0537438	-0.0742354	-0.323696	0.088697	0.812661	1.5708	0	0	0.0113352	-0.317217	0.537059	0.758013	1.44545	0	0
0.11	-0.324836	1.39206	-1.15976	0.700187	1.92958	0.960533	-0.173294	0.0831771	-0.210373	0.266925	-0.213107	0	0	0.16122	-0.215246	-0.16159	1.28534	-0.205837	0	0	-0.243176	0.0970349	0.0610052	-0.0745925	-0.32236	0.0765689	0.822439	1.5708	0	0	0.00922539	-0.310335	0.531482	0.753449	1.48876	0	0
0.12	-0.313381	1.39166	-1.17539	0.699537	1.92072	0.960318	-0.189639	0.083291	-0.204091	0.257495	-0.210289	0	0	0.175193	-0.213345	-0.171979	1.26045	-0.19822	0	0	-0.246339	0.0917143	0.0636337	-0.0682033	-0.319513	0.0722914	0.827661	1.5708	0	0	-0.00152449	-0.321527	0.519925	0.769192	1.47427	0	0
0.13	-0.309607	1.3912	-1.18153	0.698906	1.91229	0.959895	-0.204651	0.0853074	-0.197023	0.248451	-0.207032	0	0	0.19001	-0.211893	-0.178595	1.23203	-0.191879	0	0	-0.247962	0.0893962	0.0653996	-0.0618577	-0.318302	0.0712938	0.833828	1.5708	0	0	-0.00737812	-0.326853	0.516708	0.777728	1.46561	0	0
0.14	-0.299949	1.39045	-1.19322	0.698623	1.90364	0.959539	-0.220504	0.0855911	-0.192799	0.239851	-0.203951	0	0	0.201177	-0.208449	-0.186595	1.19699	-0.187784	0	0	-0.249634	0.0867425	0.0680455	-0.0570087	-0.31837	0.0717911	0.840411	1.5708	0	0	-0.0112569	-0.330217	0.515798	0.782244	1.45943	0	0
0.15	-0.303197	1.39185	-1.18964	0.698449	1.89533	0.958779	-0.232746	0.0881157	-0.186475	0.23146	-0.200147	0	0	0.215987	-0.204802	-0.188686	1.15846	-0.186552	0	0	-0.246804	0.0877859	0.0731674	-0.0566226	-0.319578	0.0683259	0.849808	1.5708	0	0	-0.0091905	-0.321302	0.515243	0.772558	1.49408	0	0
0.16	-0.298409	1.39225	-1.19465	0.698561	1.88667	0.957984	-0.24657	0.088556	-0.182599	0.225034	-0.195932	0	0	0.225688	-0.200063	-0.194598	1.11382	-0.186928	0	0	-0.249085	0.0844161	0.0737123	-0.0509342	-0.318688	0.0689041	0.856054	1.5708	0	0	-0.0163247	-0.330434	0.506894	0.784448	1.47907	0	0
0.17	-0.302898	1.39538	-1.1893	0.698744	1.87813	0.956961	-0.256867	0.089924	-0.177035	0.218588	-0.19094	0	0	0.237978	-0.194752	-0.197557	1.06506	-0.190962	0	0	-0.244557	0.0858746	0.0754498	-0.0486542	-0.320245	0.0698505	0.86391	1.5708	0	0	-0.0166549	-0.319428	0.500936	0.775847	1.50337	0	0
0.18	-0.310937	1.39912	-1.17975	0.699075	1.8696	0.955651	-0.265613	0.0913154	-0.17322	0.214366	-0.185491	0	0	0.249784	-0.189093	-0.200524	1.01346	-0.195073	0	0	-0.241354	0.0858236	0.0754076	-0.0448988	-0.32068	0.0713131	0.87109	1.5708	0	0	-0.0206672	-0.317761	0.491558	0.77668	1.51038	0	0
0.19	-0.319117	1.4029	-1.16953	0.699509	1.86105	0.954209	-0.274256	0.0926039	-0.170034	0.210246	-0.17926	0	0	0.259695	-0.182713	-0.204126	0.958179	-0.200535	0	0	-0.238132	0.0854351	0.0744365	-0.0404645	-0.321287	0.075115	0.877201	1.5708	0	0	-0.0248154	-0.316696	0.482474	0.777342	1.51631	0	0
0.2	-0.318579	1.40476	-1.16793	0.699928	1.85272	0.952889	-0.284465	0.0930532	-0.16771	0.207408	-0.172416	0	0	0.264871	-0.175255	-0.208596	0.898733	-0.207833	0	0	-0.238132	0.0840694	0.0729544	-0.0341912	-0.321364	0.0799946	0.882173	1.5708	0	0	-0.0284118	-0.315968	0.472417	0.778292	1.52186	0	0
0.21	-0.322881	1.40836	-1.1609	0.70083	1.84412	0.951251	-0.292196	0.0926687	-0.169577	0.206054	-0.165893	0	0	0.270139	-0.16693	-0.213477	0.837541	-0.213511	0	0	-0.236927	0.0817853	0.0690294	-0.0266221	-0.320929	0.0869359	0.885388	1.5708	0	0	-0.0356126	-0.323568	0.464417	0.787683	1.50149	0	0
0.22	-0.342709	1.41383	-1.13854	0.701229	1.8356	0.949361	-0.296359	0.0949323	-0.16852	0.205243	-0.158956	0	0	0.277682	-0.160719	-0.216983	0.774707	-0.219293	0	0	-0.230657	0.0819485	0.0668831	-0.0201234	-0.320475	0.0944279	0.886812	1.5708	0	0	-0.0384249	-0.325049	0.463094	0.789017	1.4883	0	0
0.23	-0.364168	1.43175	-1.11122	0.705436	1.82518	0.9468	-0.288238	0.0841536	-0.191495	0.212196	-0.150687	0	0	0.291363	-0.140257	-0.220349	0.704797	-0.222096	0	0	-0.208152	0.0825974	0.0596995	-0.0221452	-0.326711	0.100834	0.889926	1.5708	0	0	-0.0446918	-0.313058	0.457326	0.776707	1.47937	0	0
0.24	-0.383642	1.42775	-1.09098	0.702869	1.81802	0.945342	-0.300304	0.0960615	-0.173772	0.209309	-0.142664	0	0	0.289268	-0.143645	-0.217673	0.640168	-0.229255	0	0	-0.214251	0.0817486	0.0619367	-0.0104059	-0.319794	0.107205	0.888548	1.5708	0	0	-0.0429469	-0.322818	0.45823	0.784067	1.47488	0	0
0.25	-0.41347	1.43546	-1.0571	0.703853	1.80924	0.943243	-0.301131	0.097258	-0.175323	0.210723	-0.135498	0	0	0.293516	-0.134431	-0.210764	0.568731	-0.237618	0	0	-0.203533	0.0840533	0.0615972	-0.00900276	-0.320437	0.110548	0.890853	1.5708	0	0	-0.0415984	-0.307022	0.447242	0.767	1.5192	0	0
0.26	-0.434274	1.44163	-1.0327	0.70507	1.8003	0.941237	-0.303825	0.0970534	-0.178586	0.213695	-0.128703	0	0	0.293322	-0.124501	-0.203166	0.496683	-0.245939	0	0	-0.197196	0.0837299	0.0578706	-0.00368661	-0.319953	0.117425	0.89091	1.5708	0	0	-0.0465817	-0.301678	0.431756	0.764291	1.53089	0	0
0.27	-0.486133	1.44906	-0.976917	0.706143	1.79138	0.938791	-0.302396	0.0998981	-0.179219	0.21839	-0.120649	0	0	0.296967	-0.1173	-0.189361	0.429868	-0.253468	0	0	-0.187378	0.0854467	0.0530158	0.00224504	-0.319288	0.126189	0.889556	1.5708	0	0	-0.0525592	-0.297578	0.417375	0.762841	1.53895	0	0
0.28	-0.503403	1.45295	-0.956499	0.707499	1.7823	0.936912	-0.306533	0.0996376	-0.182354	0.223946	-0.113178	0	0	0.292838	-0.108321	-0.179403	0.365907	-0.260951	0	0	-0.183313	0.0854096	0.0487403	0.00838378	-0.319295	0.135446	0.888294	1.5708	0	0	-0.0578423	-0.293504	0.404294	0.761341	1.54546	0	0
0.29	-0.533013	1.45744	-0.923583	0.708931	1.77308	0.934888	-0.308474	0.100018	-0.185688	0.231291	-0.105856	0	0	0.290553	-0.100371	-0.167983	0.309434	-0.26606	0	0	-0.177573	0.0861619	0.0445604	0.0136767	-0.319299	0.144208	0.886568	1.5708	0	0	-0.0632111	-0.289181	0.392077	0.759776	1.55192	0	0
